<svg width="200" height="36" xmlns="http://www.w3.org/2000/svg">
 <title>Asset 1</title>

 <g>
  <title>Layer 1</title>
  <g stroke="null" id="Layer_2" data-name="Layer 2">
   <g stroke="null" id="Layer_1-2" data-name="Layer 1">
    <path stroke="null" class="cls-1" d="m-51.0168,32.02998l-8.04487,0l-7.32216,-9.69688l-2.36465,0l0,9.68413l-6.56142,0l0,-26.38926l10.59336,0a23.07589,23.19095 0 0 1 3.80372,0.27396a8.13362,8.17417 0 0 1 2.97958,1.14043a6.83401,6.86809 0 0 1 2.24419,2.29361a6.7833,6.81712 0 0 1 0.82414,3.53598a8.16532,8.20603 0 0 1 -1.35666,4.92489a9.61073,9.65865 0 0 1 -3.63255,3.00081l8.83731,11.23232zm-10.61872,-18.31703a3.60085,3.61881 0 0 0 -0.38037,-1.71384a2.46608,2.47837 0 0 0 -1.26791,-1.10221a4.46937,4.49165 0 0 0 -1.37568,-0.33767c-0.50716,-0.05097 -1.13478,-0.07008 -1.90186,-0.07008l-2.18714,0l0,7.11019l1.90186,0a13.69339,13.76166 0 0 0 2.33929,-0.17202a3.41067,3.42767 0 0 0 1.62926,-0.71994a3.07467,3.09 0 0 0 0.94459,-1.18503a4.48205,4.5044 0 0 0 0.29796,-1.8094z" fill="#3e4970" id="svg_1"/>
    <path stroke="null" class="cls-1" d="m-35.98578,32.02998l-14.14983,0l0,-4.59996l3.80372,0l0,-17.20208l-3.80372,0l0,-4.59996l14.14983,0l0,4.59996l-3.77202,0l0,17.20208l3.77202,0l0,4.59996z" fill="#3e4970" id="svg_2"/>
    <path stroke="null" class="cls-1" d="m-23.50958,32.52693a21.33886,21.44526 0 0 1 -5.29985,-0.58614a26.70845,26.84161 0 0 1 -4.20945,-1.47173l0,-6.27557l0.63395,0a14.73941,14.8129 0 0 0 4.30454,2.59943a13.01506,13.07995 0 0 0 4.62152,0.9047a11.78519,11.84395 0 0 0 1.49613,-0.12105a5.42664,5.4537 0 0 0 1.48979,-0.38864a3.38531,3.40219 0 0 0 1.16647,-0.84736a2.05401,2.06425 0 0 0 0.47546,-1.45899a1.95258,1.96231 0 0 0 -0.77976,-1.6119a4.99555,5.02046 0 0 0 -1.85114,-0.9047c-0.89387,-0.23573 -1.85114,-0.45872 -2.86547,-0.67534a22.7082,22.82143 0 0 1 -2.85279,-0.77728q-3.04931,-1.07672 -4.37428,-2.91161a7.53136,7.56891 0 0 1 -1.32496,-4.57448a7.07492,7.11019 0 0 1 3.12539,-6.00161a12.85023,12.9143 0 0 1 7.79762,-2.29361a23.17099,23.28652 0 0 1 4.6659,0.47784a20.5591,20.66161 0 0 1 4.15873,1.27423l0,6.0271l-0.58324,0a13.20524,13.27109 0 0 0 -3.5755,-2.12796a11.41116,11.46805 0 0 0 -4.31722,-0.82825a8.79293,8.83677 0 0 0 -1.55319,0.12742a5.92112,5.95065 0 0 0 -1.44541,0.47784a2.89083,2.90524 0 0 0 -1.07138,0.84099a1.93356,1.9432 0 0 0 -0.45011,1.27423a1.96525,1.97505 0 0 0 0.71637,1.58004a7.22073,7.25673 0 0 0 2.75136,1.07035l2.53581,0.58614a24.15362,24.27405 0 0 1 2.61823,0.78365a8.87534,8.9196 0 0 1 4.06998,2.66951a6.83401,6.86809 0 0 1 1.3313,4.42157a7.60744,7.64537 0 0 1 -3.08101,6.33291q-3.06833,2.40829 -8.3238,2.40829z" fill="#3e4970" id="svg_3"/>
    <path stroke="null" class="cls-1" d="m-2.67154,32.02998l-6.25712,0l0,-6.97003l6.24444,0l0.01268,6.97003z" fill="#3e4970" id="svg_4"/>
    <path stroke="null" class="cls-1" d="m8.56845,9.27864l-6.52972,0l0,-4.84207l6.52972,0l0,4.84207zm-0.17751,22.75134l-6.1747,0l0,-19.8907l6.1747,0l0,19.8907z" fill="#e0e0e0" id="svg_5"/>
    <path stroke="null" class="cls-1" d="m31.68238,32.02998l-6.21274,0l0,-9.87527c0,-0.80276 0,-1.60553 -0.09509,-2.40192a5.31887,5.34539 0 0 0 -0.36135,-1.76481a1.94624,1.95594 0 0 0 -0.91923,-0.96841a3.66425,3.68252 0 0 0 -1.6039,-0.29307a4.39963,4.42157 0 0 0 -1.53417,0.2867a7.10661,7.14205 0 0 0 -1.66096,0.9047l0,14.11208l-6.1747,0l0,-19.8907l6.1747,0l0,2.19804a15.4114,15.48824 0 0 1 2.95422,-2.02602a7.01786,7.05285 0 0 1 3.16977,-0.72631q3.0303,0 4.64054,1.91134c1.06504,1.27423 1.6039,3.14097 1.6039,5.58112l0.01902,12.95253z" fill="#e0e0e0" id="svg_6"/>
    <path stroke="null" class="cls-1" d="m48.91957,9.11936l-0.47546,0c-0.23456,-0.07008 -0.60226,-0.15928 -1.10308,-0.27396a6.39025,6.42211 0 0 0 -1.42006,-0.16565q-1.90186,0 -2.53581,0.68808c-0.45645,0.46509 -0.67833,1.3252 -0.67833,2.59305l0,0.17839l4.90046,0l0,4.326l-4.69125,0l0,15.5647l-6.20006,0l0,-15.58381l-2.47242,0l0,-4.30689l2.47242,0l0,-0.5734q0,-3.65066 1.90186,-5.47918t5.76897,-1.82215c0.89387,0 1.72435,0.03186 2.53581,0.09557s1.44541,0.15291 2.00963,0.25485l-0.01268,4.5044z" fill="#e0e0e0" id="svg_7"/>
    <path stroke="null" class="cls-1" d="m69.08562,22.08463q0,4.91215 -2.66894,7.74094t-7.56306,2.82879q-4.84974,0 -7.54404,-2.82879t-2.68796,-7.74094q0,-4.96949 2.68796,-7.77916t7.54404,-2.8033q4.86876,0 7.55038,2.82879t2.68162,7.75368zm-6.33953,0a12.30503,12.36638 0 0 0 -0.29162,-2.94984a5.52173,5.54926 0 0 0 -0.79878,-1.91134a3.05565,3.07089 0 0 0 -1.23621,-1.03212a3.97489,3.99471 0 0 0 -1.5722,-0.29307a4.19677,4.21769 0 0 0 -1.50247,0.25485a2.92886,2.94347 0 0 0 -1.22987,0.98753a5.20476,5.23071 0 0 0 -0.8495,1.91134a12.19092,12.2517 0 0 0 -0.31698,3.03266a11.931,11.99049 0 0 0 0.29796,2.95621a5.60415,5.63209 0 0 0 0.77976,1.79666a2.92252,2.9371 0 0 0 1.23621,1.01301a4.13337,4.15398 0 0 0 1.6356,0.31856a3.95587,3.97559 0 0 0 1.50881,-0.31856a2.88449,2.89887 0 0 0 1.22987,-0.95567a5.60415,5.63209 0 0 0 0.83048,-1.84126a12.31771,12.37913 0 0 0 0.28528,-2.9371l-0.00634,-0.03186z" fill="#e0e0e0" id="svg_8"/>
    <path stroke="null" class="cls-1" d="m96.04765,32.02998l0,-9.94535c0,-0.98116 0,-1.8094 -0.05072,-2.48474a5.23011,5.25619 0 0 0 -0.31698,-1.65013a1.76873,1.77755 0 0 0 -0.82414,-0.93019a3.36629,3.38308 0 0 0 -1.55952,-0.29307a3.32825,3.34485 0 0 0 -1.3947,0.31219a9.2367,9.28275 0 0 0 -1.50247,0.87922l0,14.11208l-6.2064,0l0,-9.94535c0,-0.96841 0,-1.79666 -0.0634,-2.472a5.24913,5.2753 0 0 0 -0.32966,-1.66287a1.75605,1.76481 0 0 0 -0.80512,-0.93019a3.68961,3.708 0 0 0 -3.02396,0.06371a10.69479,10.74811 0 0 0 -1.41372,0.83462l0,14.11208l-6.1747,0l0,-19.8907l6.1747,0l0,2.19804a17.23085,17.31676 0 0 1 2.85913,-2.02602a6.26346,6.29469 0 0 1 3.01762,-0.72631a5.88309,5.91242 0 0 1 3.16977,0.87285a5.44566,5.47281 0 0 1 2.09838,2.58668a18.28321,18.37437 0 0 1 3.35995,-2.54846a6.42828,6.46034 0 0 1 3.24584,-0.93019a6.61213,6.6451 0 0 1 2.47242,0.44598a4.72295,4.7465 0 0 1 1.85114,1.33157a6.23176,6.26283 0 0 1 1.26791,2.2745a11.63304,11.69104 0 0 1 0.41841,3.45316l0,12.9589l-6.2698,0z" fill="#e0e0e0" id="svg_9"/>
    <path stroke="null" class="cls-1" d="m116.97444,32.56516q-5.61049,0 -8.60274,-2.69499t-2.99226,-7.6836q0,-4.87392 2.78939,-7.77916t7.79128,-2.90524q4.55812,0 6.84669,2.46563t2.29491,7.05922l0,2.2299l-13.52856,0a5.63584,5.66394 0 0 0 0.58324,2.3191a4.03194,4.05205 0 0 0 1.30594,1.4781a5.19208,5.21796 0 0 0 1.86382,0.78365a10.59336,10.64618 0 0 0 2.31393,0.23573a9.5093,9.55671 0 0 0 2.1174,-0.23573a10.14325,10.19382 0 0 0 1.90186,-0.63711a12.1719,12.23259 0 0 0 1.40738,-0.72631c0.42475,-0.26122 0.77976,-0.49058 1.04602,-0.69445l0.63395,0l0,5.09691l-1.38202,0.55429a12.62201,12.68494 0 0 1 -1.72435,0.5288a19.01859,19.11342 0 0 1 -2.07303,0.41412a18.80305,18.8968 0 0 1 -2.59287,0.19113zm2.04767,-13.05447a4.74831,4.77198 0 0 0 -0.91289,-2.99444a3.2078,3.2238 0 0 0 -2.61823,-1.03212a3.68961,3.708 0 0 0 -2.81475,1.08309a4.50741,4.52988 0 0 0 -1.1221,2.94347l7.46797,0z" fill="#e0e0e0" id="svg_10"/>
    <path stroke="null" class="cls-1" d="m146.30111,32.02998l-6.18104,0l0,-2.05151c-0.39939,0.3313 -0.85584,0.68808 -1.363,1.06398a9.00847,9.05339 0 0 1 -1.35032,0.84736a7.88004,7.91933 0 0 1 -1.46443,0.53518a7.60744,7.64537 0 0 1 -1.73069,0.17202a6.22542,6.25646 0 0 1 -5.36324,-2.81604q-1.97793,-2.81604 -1.97793,-7.53706a13.50954,13.5769 0 0 1 0.67199,-4.52351a10.60604,10.65892 0 0 1 1.85114,-3.33211a7.82932,7.86836 0 0 1 2.61189,-2.04514a7.30314,7.33955 0 0 1 3.24584,-0.75817a8.18434,8.22514 0 0 1 2.53581,0.3313a15.15782,15.2334 0 0 1 2.32027,1.01938l0,-8.4991l6.18104,0l0.01268,27.59341zm-6.18104,-5.49829l0,-9.76696a4.94483,4.96949 0 0 0 -1.19817,-0.38227a6.48534,6.51768 0 0 0 -1.26791,-0.15291a3.86711,3.8864 0 0 0 -3.34727,1.56093a7.30948,7.34592 0 0 0 -1.11576,4.36423c0,1.96231 0.29162,3.38308 0.88753,4.25592a3.25218,3.2684 0 0 0 2.88449,1.31245a4.6025,4.62545 0 0 0 1.64194,-0.31856a5.70558,5.73403 0 0 0 1.51515,-0.87285z" fill="#e0e0e0" id="svg_11"/>
    <path stroke="null" class="cls-1" d="m157.37628,9.27864l-6.54874,0l0,-4.84207l6.52338,0l0.02536,4.84207zm-0.17751,22.75134l-6.1747,0l0,-19.8907l6.1747,0l0,19.8907z" fill="#e0e0e0" id="svg_12"/>
    <path stroke="null" class="cls-1" d="m171.6529,32.56516a15.39238,15.46913 0 0 1 -4.48839,-0.63711a9.61707,9.66502 0 0 1 -3.53746,-1.91134a8.76757,8.81129 0 0 1 -2.31393,-3.2238a11.71545,11.77387 0 0 1 -0.83048,-4.61908a11.68376,11.74201 0 0 1 0.90021,-4.86118a9.13526,9.18081 0 0 1 2.43438,-3.29388a9.59805,9.64591 0 0 1 3.49308,-1.87949a14.657,14.73008 0 0 1 7.45529,-0.21662a14.97397,15.04863 0 0 1 3.29656,1.21689l0,5.37087l-0.79878,0c-0.24724,-0.23573 -0.55154,-0.49695 -0.90655,-0.78365a9.62341,9.67139 0 0 0 -1.17281,-0.77728a7.94343,7.98304 0 0 0 -1.52149,-0.63711a6.48534,6.51768 0 0 0 -1.90186,-0.25485a4.37428,4.39609 0 0 0 -3.65791,1.6565a6.97348,7.00825 0 0 0 -1.26791,4.4598q0,2.99444 1.38836,4.4598a4.81804,4.84207 0 0 0 3.67693,1.47173a7.34118,7.37778 0 0 0 2.04767,-0.26122a6.89107,6.92543 0 0 0 1.51515,-0.63711a6.61847,6.65147 0 0 0 1.0587,-0.77091c0.29796,-0.26759 0.55154,-0.50332 0.76074,-0.71357l0.80512,0l0,5.31353c-0.34867,0.15928 -0.76074,0.3313 -1.22353,0.53518a10.7772,10.83094 0 0 1 -1.42006,0.49695c-0.60226,0.16565 -1.16647,0.29307 -1.68632,0.38227a12.95166,13.01624 0 0 1 -2.10472,0.11468z" fill="#e0e0e0" id="svg_13"/>
    <path stroke="null" class="cls-1" d="m191.9077,29.92114l-1.14112,0.95567a6.68821,6.72155 0 0 1 -1.34398,0.85373a7.43627,7.47335 0 0 1 -3.80372,0.83462a5.85139,5.88056 0 0 1 -4.3616,-1.77755a6.06693,6.09718 0 0 1 -1.74337,-4.4598a6.43462,6.46671 0 0 1 0.88753,-3.58058a6.04791,6.07807 0 0 1 2.53581,-2.16619a13.31302,13.37939 0 0 1 4.0256,-1.14043q2.33295,-0.31856 5.01457,-0.49695l0,-0.10831a2.32661,2.33821 0 0 0 -1.21085,-2.2745a8.1463,8.18692 0 0 0 -3.62621,-0.63711a9.92771,9.97721 0 0 0 -2.53581,0.40138a19.08833,19.1835 0 0 0 -2.85279,1.01938l-0.53252,0l0,-4.80384c0.63395,-0.17202 1.59756,-0.38227 2.9669,-0.63711a23.66547,23.78347 0 0 1 4.12704,-0.36316q5.116,0 7.45529,1.70747t2.33929,5.22434l0,13.55779l-6.20006,0l0,-2.10885zm0,-3.08363l0,-4.15398c-1.04602,0.10831 -1.90186,0.19751 -2.53581,0.27396a9.02115,9.06613 0 0 0 -1.90186,0.45235a2.6626,2.67588 0 0 0 -1.26791,0.8601a2.39634,2.40829 0 0 0 -0.45011,1.53544a2.16812,2.17893 0 0 0 0.74806,1.91134a3.86711,3.8864 0 0 0 2.2125,0.52243a4.10802,4.1285 0 0 0 1.66096,-0.36953a5.17306,5.19885 0 0 0 1.53417,-1.03212z" fill="#e0e0e0" id="svg_14"/>
    <rect stroke="null" class="cls-2" x="2.11481" y="4.43657" width="6.56142" height="4.84844" fill="#e30613" id="svg_15"/>
   </g>
  </g>
 </g>
</svg>
