<svg xmlns="http://www.w3.org/2000/svg" fill="none" viewBox="-0.5 -0.5 24 24" id="Stenciljs--Streamline-Svg-Logos.svg" height="24" width="24"><desc>Stenciljs Streamline Icon: https://streamlinehq.com</desc><path fill="#000000" d="m4.839511458333334 12.453877083333333 -1.2707020833333333 1.392075H1.23070125l1.2580664583333334 -1.392075h2.35074375Zm4.175530208333334 -2.2117135416666667c0.8567260416666667 0 1.1525635416666666 0.5452197916666667 1.1738625 0.96298125h-0.7478593750000001c-0.01655520833333333 -0.1794 -0.15383645833333334 -0.3422447916666667 -0.43074687500000003 -0.3422447916666667 -0.25084375 0 -0.3928447916666667 0.12036666666666666 -0.3928447916666667 0.27851562500000004 0 0.47911875000000004 1.5832625 0 1.5832625 1.1706520833333334 0 0.5121572916666667 -0.43781458333333334 0.9157354166666667 -1.2117166666666668 0.9157354166666667 -0.8993000000000001 -0.0023479166666666666 -1.2046010416666666 -0.460215625 -1.2424552083333333 -0.9936239583333335h0.7857135416666667c0.011811458333333334 0.1911635416666667 0.15381250000000002 0.37056354166666666 0.4756927083333334 0.37056354166666666 0.2958375 0 0.447278125 -0.103859375 0.447278125 -0.26200833333333334 0 -0.4790947916666667 -1.58800625 -0.028294791666666666 -1.58800625 -1.158840625 0 -0.5168770833333334 0.44255833333333333 -0.9417302083333333 1.1478197916666666 -0.9417302083333333Zm10.124456250000001 0c0.8898604166666667 0 1.3111197916666668 0.6254562499999999 1.3655531250000001 1.1116666666666666h-0.7975489583333334c-0.059153125 -0.24547708333333335 -0.28874583333333337 -0.4248291666666667 -0.5727239583333333 -0.4248291666666667 -0.41416770833333333 0 -0.6555479166666668 0.3256895833333333 -0.6555479166666668 0.8048083333333333 0 0.47914270833333333 0.24138020833333335 0.8048322916666667 0.6555479166666668 0.8048322916666667 0.283978125 0 0.5135708333333334 -0.17937604166666668 0.5727239583333333 -0.4248291666666667h0.7975489583333334c-0.05443333333333334 0.4838385416666667 -0.4756927083333334 1.1116427083333333 -1.3655531250000001 1.1116427083333333 -0.8306833333333333 0 -1.4365416666666668 -0.6419635416666667 -1.4365416666666668 -1.4916458333333333 0 -0.8496583333333334 0.6058583333333334 -1.4916458333333333 1.4365416666666668 -1.4916458333333333Zm-6.049119791666667 -0.0023479166666666666c0.8472625 0 1.4199864583333333 0.6419635416666667 1.4199864583333333 1.4869020833333333 0 0.12508645833333334 -0.011811458333333334 0.22894583333333335 -0.011811458333333334 0.22894583333333335h-2.0755583333333334c0.05445729166666667 0.391790625 0.30530104166666666 0.6042291666666666 0.6934260416666667 0.6042291666666666 0.2343125 0 0.4591135416666667 -0.103859375 0.551425 -0.3115541666666667h0.7809937499999999c-0.1703916666666667 0.5782583333333334 -0.6934260416666667 0.9747687500000001 -1.3537177083333334 0.9747687500000001 -0.8472625 0 -1.4412614583333334 -0.6207364583333334 -1.4412614583333334 -1.4963895833333334 0 -0.8449385416666667 0.5892791666666667 -1.4869020833333333 1.4365177083333334 -1.4869020833333333Zm-1.8743562500000002 -0.5971375v0.6632145833333334h0.5703520833333333v0.6301760416666667h-0.5703520833333333v2.223309375h-0.7762500000000001V9.642678125000002h0.7762500000000001Zm5.147447916666667 0.5994854166666668c0.6886822916666666 0 1.0531364583333334 0.4578916666666667 1.0531364583333334 1.1376135416666668v1.7796010416666668h-0.7762500000000001v-1.6946208333333335c0 -0.33278125000000003 -0.14200104166666666 -0.5617270833333333 -0.48515625 -0.5617270833333333 -0.37628958333333334 0 -0.5845593750000001 0.24073333333333333 -0.5845593750000001 0.6207364583333334v1.6332395833333335h-0.7762500000000001V10.305892708333333h0.7170729166666666v0.3493125c0.13018958333333333 -0.245453125 0.42600312500000004 -0.4130416666666667 0.8520062500000001 -0.4130416666666667Zm5.206529166666667 0.06372916666666667v2.8534854166666666h-0.7762739583333333V10.305892708333333h0.7762739583333333ZM22.760416666666668 9.333495833333334V13.159354166666668h-0.7762739583333333V9.333495833333334H22.760416666666668Zm-16.421425000000003 1.470490625 -1.2700552083333334 1.3920989583333334H0.23958333333333334l1.2700408333333335 -1.3920989583333334H6.338991666666667Zm6.741946875 0.05891354166666667c-0.35264270833333333 0 -0.5821875000000001 0.21241458333333335 -0.6484802083333334 0.5381281250000001h1.2993083333333333c-0.05445729166666667 -0.32099375 -0.28874583333333337 -0.5381281250000001 -0.650828125 -0.5381281250000001Zm-7.733127083333334 -1.7087802083333334 -1.26485625 1.392075H1.7390036458333333l1.2667369791666667 -1.392075h2.3420708333333335Zm15.831690625 0c0.27216666666666667 0 0.46860104166666666 0.19590729166666668 0.46860104166666666 0.4673072916666667 0 0.2714239583333333 -0.196434375 0.4626114583333334 -0.46860104166666666 0.4626114583333334 -0.26981875000000005 0 -0.46860104166666666 -0.18881562500000001 -0.46860104166666666 -0.4626114583333334 0 -0.27140000000000003 0.19645833333333332 -0.4673072916666667 0.46860104166666666 -0.4673072916666667Z" stroke-width="1"></path></svg>